# xmcd
#
# Track frame offsets:
#	150
#	16910
#	28860
#	41428
#	59858
#	79703
#	96534
#	121527
#	140490
#	158975
#	172171
#	187271
#	205583
#	222894
#	235655
#	253785
#	269323
#	281520
#
# Disc length: 3887
#
# Revision: 2
# Processed by: cddbd v1.5.1PL0 Copyright (c) Steve Scherf et al.
# Submitted via: audiograbber 1.82.02
# Normalized: r1:DSETVAR1
#
DISCID=090f2d12
DTITLE=Various Artist - Soul Sister Soul Brother
DYEAR=1900
DGENRE=
TTITLE0=Harold Melvin and The Bluenotes - Don't Leave Me This Way
TTITLE1=Sam and Dave - Soul Sister, Brown Sugar
TTITLE2=Foundations - Baby, Now That I've Found You
TTITLE3=Chi-Lites - Have You Seen Her?
TTITLE4=The Supremes - Stoned Love
TTITLE5=The Contours - The Tracks Of My Tears
TTITLE6=Rose Royce - Love Don't Live Here Anymore
TTITLE7=Odyssey - Inside Out
TTITLE8=Freda Payne - Band of Gold
TTITLE9=Percy Sledge - When A Man Loves A Woman
TTITLE10=Billy Ocean - Emotions In Motion
TTITLE11=Billy Griffin - Hold Me Tighter In The Rain
TTITLE12=Brook Benton - Rainy Night In Georgia
TTITLE13=Detroit Emeralds - You Want It, You Got It
TTITLE14=Frances Nero - Footsteps Following Me
TTITLE15=Tymes - People
TTITLE16=Three Degrees - When Will I See You Again
TTITLE17=Drifters - Save The Last Dance For Me
EXTD=
EXTT0=
EXTT1=
EXTT2=
EXTT3=
EXTT4=
EXTT5=
EXTT6=
EXTT7=
EXTT8=
EXTT9=
EXTT10=
EXTT11=
EXTT12=
EXTT13=
EXTT14=
EXTT15=
EXTT16=
EXTT17=
PLAYORDER=
